<?xml version="1.0" encoding="utf-8"?>
<!-- Generator: Adobe Illustrator 16.0.0, SVG Export Plug-In . SVG Version: 6.00 Build 0)  -->
<!DOCTYPE svg PUBLIC "-//W3C//DTD SVG 1.1//EN" "http://www.w3.org/Graphics/SVG/1.1/DTD/svg11.dtd">
<svg version="1.1" id="Layer_1" xmlns="http://www.w3.org/2000/svg" xmlns:xlink="http://www.w3.org/1999/xlink" x="0px" y="0px"
	 width="595.28px" height="841.89px" viewBox="0 0 595.28 841.89" enable-background="new 0 0 595.28 841.89" xml:space="preserve">
<g>
	<path fill="#FFFFFF" d="M574.251,176.291c0-9.94-6.117-18.734-14.911-22.557c-9.176-3.824-19.881-1.912-26.763,5.352l-49.702,49.32
		c-53.907-50.849-126.932-81.053-202.25-81.053C118.902,127.354-13,259.256-13,420.979c0,161.723,131.902,293.625,293.625,293.625
		c87.553,0,170.135-38.615,225.954-105.904c3.823-4.97,3.823-12.234-0.765-16.439L453.437,539.5
		c-2.677-2.294-6.117-3.441-9.559-3.441c-3.441,0.383-6.882,1.912-8.793,4.588c-37.469,48.556-93.67,76.083-154.46,76.083
		c-107.815,0-195.75-87.935-195.75-195.75c0-107.816,87.935-195.75,195.75-195.75c50.085,0,97.493,19.116,133.432,52.378
		l-52.761,52.761c-7.265,6.882-9.176,17.587-5.353,26.38c3.823,9.176,12.616,15.293,22.557,15.293h171.282
		c13.381,0,24.469-11.087,24.469-24.469V176.291z"/>
</g>
</svg>
